<?xml version="1.0" encoding="utf-8"?>
<?xml-stylesheet type="text/xsl" href="rss1.xsl"?>
<rss version="2.0" xmlns:atom="http://www.w3.org/2005/Atom" xmlns:content="http://purl.org/rss/1.0/modules/content/" xmlns:dc="http://purl.org/dc/elements/1.1/" xmlns:media="http://search.yahoo.com/mrss/">
<channel>
 <title>Getty</title>
 <link>http://www.gettyimg.com/</link>
 <atom:link href="http://www.gettyimg.com/" rel="self" type="application/rss+xml" />

 
                <item>
                <title><![CDATA[【Cinema Center】SERIES - Queer As Folk US Season 3 (2000) [1080p AMZN WEBRip DD+ 5.1]]]></title>
                <link><![CDATA[https://sharemania.us/threads/queer-as-folk-us-season-3-2000-1080p-amzn-webrip-dd-5-1.248657/]]></link>
                <description><![CDATA[<article>
<blockquote class="messageText SelectQuoteContainer ugc baseHtml">
<div style="text-align: center"><span style="font-family: 'Georgia'"><img src="https://i.imgur.com/gW0iT9N.jpeg" class="bbCodeImage LbImage" alt="[​IMG]" data-url="https://i.imgur.com/gW0iT9N.jpeg" style=""> </span><br>
<br>
<span style="font-family: 'Georgia'"><b><img src="https://i.imgur.com/NvDTQjE.png" class="bbCodeImage LbImage" alt="[​IMG]" data-url="https://i.imgur.com/NvDTQjE.png" style=""> </b>8.5 • Average Runtime: 47m • 2000 • TV-MA<br>
<br>
<div class="bbCodeBlock bbCodeQuote">
<aside>
<blockquote class="quoteContainer"><div class="quote"><i><b>Description:</b></i><br>
Brash humor and genuine emotion make up this series revolving around the lives, loves, ambitions, careers and friendships of a group of gay men and women living on Liberty Avenue in contemporary Pittsburgh, PA.</div><div class="quoteExpand">Click to expand...</div></blockquote>
</aside>
</div>
<div class="bbCodeBlock bbCodeQuote">
<aside>
<blockquote class="quoteContainer"><div class="quote"><b>Details:</b><br>
<i><b>Creators:</b> Ron Cowen, Daniel Lipman, Russell T. Davies</i><br>
<i><b>Starring:</b> Gale Harold, Hal Sparks, Randy Harrison</i><br>
<i><b>Genres:</b> Drama, Romance</i><br>
<i><b>Audio Language(s):</b> English</i><br>
<i><b>Subtitles:</b> English [CC]</i><br>
<i><b>Maturity Rating:</b> TV-MA</i><br>
<i><b>Content Advisory: </b>Sex &amp; Nudity, Profanity, Alcohol, Drugs, &amp; Smoking</i></div><div class="quoteExpand">Click to expand...</div></blockquote>
</aside>
</div></span><br>
<i><span style="font-family: 'Georgia'">
<div class="bbCodeBlock bbCodeQuote">
<aside>
<blockquote class="quoteContainer"><div class="quote"><b>Source:</b><br>
<b><img src="https://i.imgur.com/UquWuUD.png" class="bbCodeImage LbImage" alt="[​IMG]" data-url="https://i.imgur.com/UquWuUD.png" style=""></b></div><div class="quoteExpand">Click to expand...</div></blockquote>
</aside>
</div></span><br>
<b><span style="font-family: 'Georgia'">
<div class="bbCodeBlock bbCodeQuote">
<aside>
<blockquote class="quoteContainer"><div class="quote"><b><i>Release Name:</i></b><br>
Queer.as.Folk.US.S03.1080p.AMZN.WEBRip.DDP5.1.x264-NTb[rartv]</div><div class="quoteExpand">Click to expand...</div></blockquote>
</aside>
</div></span></b></i><br>
<div class="ToggleTriggerAnchor bbCodeSpoilerContainer">
<button type="button" class="button bbCodeSpoilerButton ToggleTrigger Tooltip JsOnly" data-target="> .SpoilerTarget"><span>Spoiler: <span class="SpoilerTitle">Thumbs</span></span></button>
<div class="SpoilerTarget bbCodeSpoilerText"><i><b><span style="font-family: 'Georgia'"><img src="https://i.imgur.com/L8z1lBy.jpeg" class="bbCodeImage LbImage" alt="[​IMG]" data-url="https://i.imgur.com/L8z1lBy.jpeg" style=""><br>
<img src="https://i.imgur.com/K1wfWI3.jpeg" class="bbCodeImage LbImage" alt="[​IMG]" data-url="https://i.imgur.com/K1wfWI3.jpeg" style=""><br>
<img src="https://i.imgur.com/kpfsKZJ.jpeg" class="bbCodeImage LbImage" alt="[​IMG]" data-url="https://i.imgur.com/kpfsKZJ.jpeg" style=""><br>
<img src="https://i.imgur.com/XrtVyf3.jpeg" class="bbCodeImage LbImage" alt="[​IMG]" data-url="https://i.imgur.com/XrtVyf3.jpeg" style=""><br>
<img src="https://i.imgur.com/JLhMHnk.png" class="bbCodeImage LbImage" alt="[​IMG]" data-url="https://i.imgur.com/JLhMHnk.png" style=""><br>
<img src="https://i.imgur.com/8mAVflp.jpeg" class="bbCodeImage LbImage" alt="[​IMG]" data-url="https://i.imgur.com/8mAVflp.jpeg" style=""><br>
<img src="https://i.imgur.com/R0N8uul.jpeg" class="bbCodeImage LbImage" alt="[​IMG]" data-url="https://i.imgur.com/R0N8uul.jpeg" style=""><br>
<img src="https://i.imgur.com/DApaJr9.jpeg" class="bbCodeImage LbImage" alt="[​IMG]" data-url="https://i.imgur.com/DApaJr9.jpeg" style=""><br>
<img src="https://i.imgur.com/jmzyqOC.jpeg" class="bbCodeImage LbImage" alt="[​IMG]" data-url="https://i.imgur.com/jmzyqOC.jpeg" style=""><br>
<img src="https://i.imgur.com/KnAMKdj.jpeg" class="bbCodeImage LbImage" alt="[​IMG]" data-url="https://i.imgur.com/KnAMKdj.jpeg" style=""><br>
<img src="https://i.imgur.com/pjN4lU5.jpeg" class="bbCodeImage LbImage" alt="[​IMG]" data-url="https://i.imgur.com/pjN4lU5.jpeg" style=""><br>
<img src="https://i.imgur.com/60S2HHM.jpeg" class="bbCodeImage LbImage" alt="[​IMG]" data-url="https://i.imgur.com/60S2HHM.jpeg" style=""><br>
<img src="https://i.imgur.com/wRSTEZW.jpeg" class="bbCodeImage LbImage" alt="[​IMG]" data-url="https://i.imgur.com/wRSTEZW.jpeg" style=""><br>
<img src="https://i.imgur.com/QjgajU9.jpeg" class="bbCodeImage LbImage" alt="[​IMG]" data-url="https://i.imgur.com/QjgajU9.jpeg" style=""></span></b></i></div>
</div>
<div class="ToggleTriggerAnchor bbCodeSpoilerContainer">
<button type="button" class="button bbCodeSpoilerButton ToggleTrigger Tooltip JsOnly" data-target="> .SpoilerTarget"><span>Spoiler: <span class="SpoilerTitle">MediaInfo</span></span></button>
<div class="SpoilerTarget bbCodeSpoilerText"><div style="text-align: left">
<div class="bbCodeBlock bbCodeHtml">
<div class="type">HTML:</div>
<pre>General
Unique ID                                : 229970016502730141121641295587878238812 (0xAD029D3645C63389BD5858BA45E5FA5C)
Complete name                            : Z:\Queer As Folk S03\Queer.as.Folk.US.S03E01.Mad.Dog.Kinney.1080p.AMZN.WEB-DL.DDP5.1.x264-NTb.mkv
Format                                   : Matroska
Format version                           : Version 4
File size                                : 4.73 GiB
Duration                                 : 45 min 39 s
Overall bit rate mode                    : Variable
Overall bit rate                         : 14.8 Mb/s
Frame rate                               : 23.976 FPS
Encoded date                             : 2017-08-04 01:46:11 UTC
Writing application                      : mkvmerge v10.0.0 ('To Drown In You') 64bit
Writing library                          : libebml v1.3.4 + libmatroska v1.4.5

Video
ID                                       : 1
Format                                   : AVC
Format/Info                              : Advanced Video Codec
Format profile                           : High@L4
Format settings                          : CABAC / 4 Ref Frames
Format settings, CABAC                   : Yes
Format settings, Reference frames        : 4 frames
Codec ID                                 : V_MPEG4/ISO/AVC
Duration                                 : 45 min 39 s
Bit rate mode                            : Variable
Bit rate                                 : 14.2 Mb/s
Maximum bit rate                         : 15.0 Mb/s
Width                                    : 1 920 pixels
Height                                   : 1 080 pixels
Display aspect ratio                     : 16:9
Frame rate mode                          : Constant
Frame rate                               : 23.976 (24000/1001) FPS
Color space                              : YUV
Chroma subsampling                       : 4:2:0
Bit depth                                : 8 bits
Scan type                                : Progressive
Bits/(Pixel*Frame)                       : 0.285
Stream size                              : 4.52 GiB (96%)
Writing library                          : x264 core 148 r2623 d5b2374
Encoding settings                        : cabac=1 / ref=4 / deblock=1:-1:-1 / analyse=0x3:0x133 / me=umh / subme=9 / psy=1 / psy_rd=1.00:0.15 / mixed_ref=1 / me_range=24 / chroma_me=1 / trellis=2 / 8x8dct=1 / cqm=0 / deadzone=21,11 / fast_pskip=1 / chroma_qp_offset=-3 / threads=34 / lookahead_threads=5 / sliced_threads=0 / nr=150 / decimate=1 / interlaced=0 / bluray_compat=0 / constrained_intra=0 / bframes=8 / b_pyramid=2 / b_adapt=2 / b_bias=0 / direct=3 / weightb=1 / open_gop=0 / weightp=2 / keyint=120 / keyint_min=61 / scenecut=0 / intra_refresh=0 / rc_lookahead=120 / rc=crf / mbtree=1 / crf=18.0 / qcomp=0.60 / qpmin=0 / qpmax=69 / qpstep=4 / vbv_maxrate=15000 / vbv_bufsize=31250 / crf_max=0.0 / nal_hrd=vbr / filler=0 / ip_ratio=1.40 / aq=3:1.00
Default                                  : Yes
Forced                                   : No
Color range                              : Limited
Color primaries                          : BT.709
Transfer characteristics                 : BT.709
Matrix coefficients                      : BT.709

Audio
ID                                       : 2
Format                                   : E-AC-3
Format/Info                              : Enhanced AC-3
Commercial name                          : Dolby Digital Plus
Codec ID                                 : A_EAC3
Duration                                 : 45 min 39 s
Bit rate mode                            : Constant
Bit rate                                 : 640 kb/s
Channel(s)                               : 6 channels
Channel layout                           : L R C LFE Ls Rs
Sampling rate                            : 48.0 kHz
Frame rate                               : 31.250 FPS (1536 SPF)
Compression mode                         : Lossy
Stream size                              : 209 MiB (4%)
Language                                 : English
Service kind                             : Complete Main
Default                                  : Yes
Forced                                   : No
Dialog Normalization                     : -24 dB
compr                                    : -0.28 dB
dialnorm_Average                         : -24 dB
dialnorm_Minimum                         : -24 dB
dialnorm_Maximum                         : -24 dB

Text
ID                                       : 3
Format                                   : UTF-8
Codec ID                                 : S_TEXT/UTF8
Codec ID/Info                            : UTF-8 Plain Text
Duration                                 : 45 min 8 s
Bit rate                                 : 69 b/s
Frame rate                               : 0.322 FPS
Count of elements                        : 871
Stream size                              : 23.0 KiB (0%)
Language                                 : English
Default                                  : No
Forced                                   : No

General
Unique ID                                : 242566880311144999271009670307782532183 (0xB67CAE8C7651DE658C956C8E597B1C57)
Complete name                            : Z:\Queer As Folk S03\Queer.as.Folk.US.S03E02.House.Full.of.Children.1080p.AMZN.WEB-DL.DDP5.1.x264-NTb.mkv
Format                                   : Matroska
Format version                           : Version 4
File size                                : 5.22 GiB
Duration                                 : 50 min 43 s
Overall bit rate mode                    : Variable
Overall bit rate                         : 14.7 Mb/s
Frame rate                               : 23.976 FPS
Encoded date                             : 2017-08-04 02:06:48 UTC
Writing application                      : mkvmerge v10.0.0 ('To Drown In You') 64bit
Writing library                          : libebml v1.3.4 + libmatroska v1.4.5

Video
ID                                       : 1
Format                                   : AVC
Format/Info                              : Advanced Video Codec
Format profile                           : High@L4
Format settings                          : CABAC / 4 Ref Frames
Format settings, CABAC                   : Yes
Format settings, Reference frames        : 4 frames
Codec ID                                 : V_MPEG4/ISO/AVC
Duration                                 : 50 min 43 s
Bit rate mode                            : Variable
Bit rate                                 : 14.1 Mb/s
Maximum bit rate                         : 15.0 Mb/s
Width                                    : 1 920 pixels
Height                                   : 1 080 pixels
Display aspect ratio                     : 16:9
Frame rate mode                          : Constant
Frame rate                               : 23.976 (24000/1001) FPS
Color space                              : YUV
Chroma subsampling                       : 4:2:0
Bit depth                                : 8 bits
Scan type                                : Progressive
Bits/(Pixel*Frame)                       : 0.284
Stream size                              : 5.00 GiB (96%)
Writing library                          : x264 core 148 r2623 d5b2374
Encoding settings                        : cabac=1 / ref=4 / deblock=1:-1:-1 / analyse=0x3:0x133 / me=umh / subme=9 / psy=1 / psy_rd=1.00:0.15 / mixed_ref=1 / me_range=24 / chroma_me=1 / trellis=2 / 8x8dct=1 / cqm=0 / deadzone=21,11 / fast_pskip=1 / chroma_qp_offset=-3 / threads=34 / lookahead_threads=5 / sliced_threads=0 / nr=150 / decimate=1 / interlaced=0 / bluray_compat=0 / constrained_intra=0 / bframes=8 / b_pyramid=2 / b_adapt=2 / b_bias=0 / direct=3 / weightb=1 / open_gop=0 / weightp=2 / keyint=120 / keyint_min=61 / scenecut=0 / intra_refresh=0 / rc_lookahead=120 / rc=crf / mbtree=1 / crf=18.0 / qcomp=0.60 / qpmin=0 / qpmax=69 / qpstep=4 / vbv_maxrate=15000 / vbv_bufsize=31250 / crf_max=0.0 / nal_hrd=vbr / filler=0 / ip_ratio=1.40 / aq=3:1.00
Default                                  : Yes
Forced                                   : No
Color range                              : Limited
Color primaries                          : BT.709
Transfer characteristics                 : BT.709
Matrix coefficients                      : BT.709

Audio
ID                                       : 2
Format                                   : E-AC-3
Format/Info                              : Enhanced AC-3
Commercial name                          : Dolby Digital Plus
Codec ID                                 : A_EAC3
Duration                                 : 50 min 43 s
Bit rate mode                            : Constant
Bit rate                                 : 640 kb/s
Channel(s)                               : 6 channels
Channel layout                           : L R C LFE Ls Rs
Sampling rate                            : 48.0 kHz
Frame rate                               : 31.250 FPS (1536 SPF)
Compression mode                         : Lossy
Stream size                              : 232 MiB (4%)
Language                                 : English
Service kind                             : Complete Main
Default                                  : Yes
Forced                                   : No
Dialog Normalization                     : -24 dB
compr                                    : -0.28 dB
dialnorm_Average                         : -24 dB
dialnorm_Minimum                         : -24 dB
dialnorm_Maximum                         : -24 dB

Text
ID                                       : 3
Format                                   : UTF-8
Codec ID                                 : S_TEXT/UTF8
Codec ID/Info                            : UTF-8 Plain Text
Duration                                 : 50 min 31 s
Bit rate                                 : 77 b/s
Frame rate                               : 0.331 FPS
Count of elements                        : 1004
Stream size                              : 28.6 KiB (0%)
Language                                 : English
Default                                  : No
Forced                                   : No

General
Unique ID                                : 215050541609395570115734121955541604519 (0xA1C93A4EC1903192AFA78745E30B58A7)
Complete name                            : Z:\Queer As Folk S03\Queer.as.Folk.US.S03E03.Doctors.of.Dickology.1080p.AMZN.WEB-DL.DDP5.1.H.264-NTb.mkv
Format                                   : Matroska
Format version                           : Version 4
File size                                : 3.20 GiB
Duration                                 : 46 min 32 s
Overall bit rate                         : 9 841 kb/s
Frame rate                               : 23.976 FPS
Encoded date                             : 2017-08-04 02:20:27 UTC
Writing application                      : mkvmerge v10.0.0 ('To Drown In You') 64bit
Writing library                          : libebml v1.3.4 + libmatroska v1.4.5

Video
ID                                       : 1
Format                                   : AVC
Format/Info                              : Advanced Video Codec
Format profile                           : High@L4
Format settings                          : CABAC / 4 Ref Frames
Format settings, CABAC                   : Yes
Format settings, Reference frames        : 4 frames
Codec ID                                 : V_MPEG4/ISO/AVC
Duration                                 : 46 min 31 s
Bit rate mode                            : Constant
Bit rate                                 : 10 000 kb/s
Width                                    : 1 920 pixels
Height                                   : 1 080 pixels
Display aspect ratio                     : 16:9
Frame rate mode                          : Constant
Frame rate                               : 23.976 (24000/1001) FPS
Color space                              : YUV
Chroma subsampling                       : 4:2:0
Bit depth                                : 8 bits
Scan type                                : Progressive
Bits/(Pixel*Frame)                       : 0.201
Stream size                              : 3.11 GiB (97%)
Language                                 : English
Default                                  : Yes
Forced                                   : No
Color range                              : Limited
Color primaries                          : BT.709
Transfer characteristics                 : BT.709
Matrix coefficients                      : BT.709

Audio
ID                                       : 2
Format                                   : E-AC-3
Format/Info                              : Enhanced AC-3
Commercial name                          : Dolby Digital Plus
Codec ID                                 : A_EAC3
Duration                                 : 46 min 32 s
Bit rate mode                            : Constant
Bit rate                                 : 256 kb/s
Channel(s)                               : 6 channels
Channel layout                           : L R C LFE Ls Rs
Sampling rate                            : 48.0 kHz
Frame rate                               : 31.250 FPS (1536 SPF)
Compression mode                         : Lossy
Stream size                              : 85.2 MiB (3%)
Language                                 : English
Service kind                             : Complete Main
Default                                  : Yes
Forced                                   : No
Dialog Normalization                     : -31 dB
compr                                    : -0.28 dB
mixlevel                                 : 80 dB
dmixmod                                  : Lo/Ro
ltrtcmixlev                              : -3.0 dB
ltrtsurmixlev                            : -3.0 dB
lorocmixlev                              : -3.0 dB
lorosurmixlev                            : -3.0 dB
dialnorm_Average                         : -31 dB
dialnorm_Minimum                         : -31 dB
dialnorm_Maximum                         : -31 dB

Text
ID                                       : 3
Format                                   : UTF-8
Codec ID                                 : S_TEXT/UTF8
Codec ID/Info                            : UTF-8 Plain Text
Duration                                 : 46 min 17 s
Bit rate                                 : 82 b/s
Frame rate                               : 0.378 FPS
Count of elements                        : 1050
Stream size                              : 28.1 KiB (0%)
Language                                 : English
Default                                  : No
Forced                                   : No

General
Unique ID                                : 233695764985216767988220261475583117623 (0xAFD02ACB66A000ACA3018F7AA925C937)
Complete name                            : Z:\Queer As Folk S03\Queer.as.Folk.US.S03E04.Brat-Sitting.1080p.AMZN.WEB-DL.DDP5.1.x264-NTb.mkv
Format                                   : Matroska
Format version                           : Version 4
File size                                : 4.72 GiB
Duration                                 : 46 min 19 s
Overall bit rate mode                    : Variable
Overall bit rate                         : 14.6 Mb/s
Frame rate                               : 23.976 FPS
Encoded date                             : 2017-08-04 02:38:29 UTC
Writing application                      : mkvmerge v10.0.0 ('To Drown In You') 64bit
Writing library                          : libebml v1.3.4 + libmatroska v1.4.5

Video
ID                                       : 1
Format                                   : AVC
Format/Info                              : Advanced Video Codec
Format profile                           : High@L4
Format settings                          : CABAC / 4 Ref Frames
Format settings, CABAC                   : Yes
Format settings, Reference frames        : 4 frames
Codec ID                                 : V_MPEG4/ISO/AVC
Duration                                 : 46 min 19 s
Bit rate mode                            : Variable
Bit rate                                 : 13.9 Mb/s
Maximum bit rate                         : 15.0 Mb/s
Width                                    : 1 920 pixels
Height                                   : 1 080 pixels
Display aspect ratio                     : 16:9
Frame rate mode                          : Constant
Frame rate                               : 23.976 (24000/1001) FPS
Color space                              : YUV
Chroma subsampling                       : 4:2:0
Bit depth                                : 8 bits
Scan type                                : Progressive
Bits/(Pixel*Frame)                       : 0.280
Stream size                              : 4.51 GiB (96%)
Writing library                          : x264 core 148 r2623 d5b2374
Encoding settings                        : cabac=1 / ref=4 / deblock=1:-1:-1 / analyse=0x3:0x133 / me=umh / subme=9 / psy=1 / psy_rd=1.00:0.15 / mixed_ref=1 / me_range=24 / chroma_me=1 / trellis=2 / 8x8dct=1 / cqm=0 / deadzone=21,11 / fast_pskip=1 / chroma_qp_offset=-3 / threads=34 / lookahead_threads=5 / sliced_threads=0 / nr=150 / decimate=1 / interlaced=0 / bluray_compat=0 / constrained_intra=0 / bframes=8 / b_pyramid=2 / b_adapt=2 / b_bias=0 / direct=3 / weightb=1 / open_gop=0 / weightp=2 / keyint=120 / keyint_min=61 / scenecut=0 / intra_refresh=0 / rc_lookahead=120 / rc=crf / mbtree=1 / crf=18.0 / qcomp=0.60 / qpmin=0 / qpmax=69 / qpstep=4 / vbv_maxrate=15000 / vbv_bufsize=31250 / crf_max=0.0 / nal_hrd=vbr / filler=0 / ip_ratio=1.40 / aq=3:1.00
Default                                  : Yes
Forced                                   : No
Color range                              : Limited
Color primaries                          : BT.709
Transfer characteristics                 : BT.709
Matrix coefficients                      : BT.709

Audio
ID                                       : 2
Format                                   : E-AC-3
Format/Info                              : Enhanced AC-3
Commercial name                          : Dolby Digital Plus
Codec ID                                 : A_EAC3
Duration                                 : 46 min 19 s
Bit rate mode                            : Constant
Bit rate                                 : 640 kb/s
Channel(s)                               : 6 channels
Channel layout                           : L R C LFE Ls Rs
Sampling rate                            : 48.0 kHz
Frame rate                               : 31.250 FPS (1536 SPF)
Compression mode                         : Lossy
Stream size                              : 212 MiB (4%)
Language                                 : English
Service kind                             : Complete Main
Default                                  : Yes
Forced                                   : No
Dialog Normalization                     : -24 dB
compr                                    : -0.28 dB
dialnorm_Average                         : -24 dB
dialnorm_Minimum                         : -24 dB
dialnorm_Maximum                         : -24 dB

Text
ID                                       : 3
Format                                   : UTF-8
Codec ID                                 : S_TEXT/UTF8
Codec ID/Info                            : UTF-8 Plain Text
Duration                                 : 46 min 6 s
Bit rate                                 : 79 b/s
Frame rate                               : 0.326 FPS
Count of elements                        : 903
Stream size                              : 26.9 KiB (0%)
Language                                 : English
Default                                  : No
Forced                                   : No

General
Unique ID                                : 251448379882484041392781920125905994609 (0xBD2B324920938CE184344B17A01B0371)
Complete name                            : Z:\Queer As Folk S03\Queer.as.Folk.US.S03E05.Theres.Nothing.Noble.About.Being.Poor.1080p.AMZN.WEB-DL.DDP5.1.x264-NTb.mkv
Format                                   : Matroska
Format version                           : Version 4
File size                                : 4.50 GiB
Duration                                 : 44 min 15 s
Overall bit rate mode                    : Variable
Overall bit rate                         : 14.6 Mb/s
Frame rate                               : 23.976 FPS
Encoded date                             : 2017-08-04 02:57:57 UTC
Writing application                      : mkvmerge v10.0.0 ('To Drown In You') 64bit
Writing library                          : libebml v1.3.4 + libmatroska v1.4.5

Video
ID                                       : 1
Format                                   : AVC
Format/Info                              : Advanced Video Codec
Format profile                           : High@L4
Format settings                          : CABAC / 4 Ref Frames
Format settings, CABAC                   : Yes
Format settings, Reference frames        : 4 frames
Codec ID                                 : V_MPEG4/ISO/AVC
Duration                                 : 44 min 15 s
Bit rate mode                            : Variable
Bit rate                                 : 13.9 Mb/s
Maximum bit rate                         : 15.0 Mb/s
Width                                    : 1 920 pixels
Height                                   : 1 080 pixels
Display aspect ratio                     : 16:9
Frame rate mode                          : Constant
Frame rate                               : 23.976 (24000/1001) FPS
Color space                              : YUV
Chroma subsampling                       : 4:2:0
Bit depth                                : 8 bits
Scan type                                : Progressive
Bits/(Pixel*Frame)                       : 0.280
Stream size                              : 4.30 GiB (96%)
Writing library                          : x264 core 148 r2623 d5b2374
Encoding settings                        : cabac=1 / ref=4 / deblock=1:-1:-1 / analyse=0x3:0x133 / me=umh / subme=9 / psy=1 / psy_rd=1.00:0.15 / mixed_ref=1 / me_range=24 / chroma_me=1 / trellis=2 / 8x8dct=1 / cqm=0 / deadzone=21,11 / fast_pskip=1 / chroma_qp_offset=-3 / threads=34 / lookahead_threads=5 / sliced_threads=0 / nr=150 / decimate=1 / interlaced=0 / bluray_compat=0 / constrained_intra=0 / bframes=8 / b_pyramid=2 / b_adapt=2 / b_bias=0 / direct=3 / weightb=1 / open_gop=0 / weightp=2 / keyint=120 / keyint_min=61 / scenecut=0 / intra_refresh=0 / rc_lookahead=120 / rc=crf / mbtree=1 / crf=18.0 / qcomp=0.60 / qpmin=0 / qpmax=69 / qpstep=4 / vbv_maxrate=15000 / vbv_bufsize=31250 / crf_max=0.0 / nal_hrd=vbr / filler=0 / ip_ratio=1.40 / aq=3:1.00
Default                                  : Yes
Forced                                   : No
Color range                              : Limited
Color primaries                          : BT.709
Transfer characteristics                 : BT.709
Matrix coefficients                      : BT.709

Audio
ID                                       : 2
Format                                   : E-AC-3
Format/Info                              : Enhanced AC-3
Commercial name                          : Dolby Digital Plus
Codec ID                                 : A_EAC3
Duration                                 : 44 min 15 s
Bit rate mode                            : Constant
Bit rate                                 : 640 kb/s
Channel(s)                               : 6 channels
Channel layout                           : L R C LFE Ls Rs
Sampling rate                            : 48.0 kHz
Frame rate                               : 31.250 FPS (1536 SPF)
Compression mode                         : Lossy
Stream size                              : 203 MiB (4%)
Language                                 : English
Service kind                             : Complete Main
Default                                  : Yes
Forced                                   : No
Dialog Normalization                     : -24 dB
compr                                    : -0.28 dB
dialnorm_Average                         : -24 dB
dialnorm_Minimum                         : -24 dB
dialnorm_Maximum                         : -24 dB

Text
ID                                       : 3
Format                                   : UTF-8
Codec ID                                 : S_TEXT/UTF8
Codec ID/Info                            : UTF-8 Plain Text
Duration                                 : 41 min 58 s
Bit rate                                 : 85 b/s
Frame rate                               : 0.345 FPS
Count of elements                        : 868
Stream size                              : 26.3 KiB (0%)
Language                                 : English
Default                                  : No
Forced                                   : No

General
Unique ID                                : 248308131769228246095653959239711028678 (0xBACE68199E9021D3BC7D3644CC6B75C6)
Complete name                            : Z:\Queer As Folk S03\Queer.as.Folk.US.S03E06.One.Ring.to.Rule.Them.All.1080p.AMZN.WEB-DL.DDP5.1.x264-NTb.mkv
Format                                   : Matroska
Format version                           : Version 4
File size                                : 4.72 GiB
Duration                                 : 45 min 56 s
Overall bit rate mode                    : Variable
Overall bit rate                         : 14.7 Mb/s
Frame rate                               : 23.976 FPS
Encoded date                             : 2017-08-04 03:15:46 UTC
Writing application                      : mkvmerge v10.0.0 ('To Drown In You') 64bit
Writing library                          : libebml v1.3.4 + libmatroska v1.4.5

Video
ID                                       : 1
Format                                   : AVC
Format/Info                              : Advanced Video Codec
Format profile                           : High@L4
Format settings                          : CABAC / 4 Ref Frames
Format settings, CABAC                   : Yes
Format settings, Reference frames        : 4 frames
Codec ID                                 : V_MPEG4/ISO/AVC
Duration                                 : 45 min 56 s
Bit rate mode                            : Variable
Bit rate                                 : 14.1 Mb/s
Maximum bit rate                         : 15.0 Mb/s
Width                                    : 1 920 pixels
Height                                   : 1 080 pixels
Display aspect ratio                     : 16:9
Frame rate mode                          : Constant
Frame rate                               : 23.976 (24000/1001) FPS
Color space                              : YUV
Chroma subsampling                       : 4:2:0
Bit depth                                : 8 bits
Scan type                                : Progressive
Bits/(Pixel*Frame)                       : 0.283
Stream size                              : 4.51 GiB (96%)
Writing library                          : x264 core 148 r2623 d5b2374
Encoding settings                        : cabac=1 / ref=4 / deblock=1:-1:-1 / analyse=0x3:0x133 / me=umh / subme=9 / psy=1 / psy_rd=1.00:0.15 / mixed_ref=1 / me_range=24 / chroma_me=1 / trellis=2 / 8x8dct=1 / cqm=0 / deadzone=21,11 / fast_pskip=1 / chroma_qp_offset=-3 / threads=34 / lookahead_threads=5 / sliced_threads=0 / nr=150 / decimate=1 / interlaced=0 / bluray_compat=0 / constrained_intra=0 / bframes=8 / b_pyramid=2 / b_adapt=2 / b_bias=0 / direct=3 / weightb=1 / open_gop=0 / weightp=2 / keyint=120 / keyint_min=61 / scenecut=0 / intra_refresh=0 / rc_lookahead=120 / rc=crf / mbtree=1 / crf=18.0 / qcomp=0.60 / qpmin=0 / qpmax=69 / qpstep=4 / vbv_maxrate=15000 / vbv_bufsize=31250 / crf_max=0.0 / nal_hrd=vbr / filler=0 / ip_ratio=1.40 / aq=3:1.00
Default                                  : Yes
Forced                                   : No
Color range                              : Limited
Color primaries                          : BT.709
Transfer characteristics                 : BT.709
Matrix coefficients                      : BT.709

Audio
ID                                       : 2
Format                                   : E-AC-3
Format/Info                              : Enhanced AC-3
Commercial name                          : Dolby Digital Plus
Codec ID                                 : A_EAC3
Duration                                 : 45 min 56 s
Bit rate mode                            : Constant
Bit rate                                 : 640 kb/s
Channel(s)                               : 6 channels
Channel layout                           : L R C LFE Ls Rs
Sampling rate                            : 48.0 kHz
Frame rate                               : 31.250 FPS (1536 SPF)
Compression mode                         : Lossy
Stream size                              : 210 MiB (4%)
Language                                 : English
Service kind                             : Complete Main
Default                                  : Yes
Forced                                   : No
Dialog Normalization                     : -24 dB
compr                                    : -0.28 dB
dialnorm_Average                         : -24 dB
dialnorm_Minimum                         : -24 dB
dialnorm_Maximum                         : -24 dB

Text
ID                                       : 3
Format                                   : UTF-8
Codec ID                                 : S_TEXT/UTF8
Codec ID/Info                            : UTF-8 Plain Text
Duration                                 : 45 min 38 s
Bit rate                                 : 83 b/s
Frame rate                               : 0.343 FPS
Count of elements                        : 939
Stream size                              : 27.9 KiB (0%)
Language                                 : English
Default                                  : No
Forced                                   : No

General
Unique ID                                : 228120877662140008383729909638132830353 (0xAB9E7BA0D67F428A9E72FFCA7AA69091)
Complete name                            : Z:\Queer As Folk S03\Queer.as.Folk.US.S03E07.Stop.Hurting.Us.1080p.AMZN.WEB-DL.DDP5.1.x264-NTb.mkv
Format                                   : Matroska
Format version                           : Version 4
File size                                : 4.72 GiB
Duration                                 : 46 min 3 s
Overall bit rate mode                    : Variable
Overall bit rate                         : 14.7 Mb/s
Frame rate                               : 23.976 FPS
Encoded date                             : 2017-08-04 03:33:35 UTC
Writing application                      : mkvmerge v10.0.0 ('To Drown In You') 64bit
Writing library                          : libebml v1.3.4 + libmatroska v1.4.5

Video
ID                                       : 1
Format                                   : AVC
Format/Info                              : Advanced Video Codec
Format profile                           : High@L4
Format settings                          : CABAC / 4 Ref Frames
Format settings, CABAC                   : Yes
Format settings, Reference frames        : 4 frames
Codec ID                                 : V_MPEG4/ISO/AVC
Duration                                 : 46 min 3 s
Bit rate mode                            : Variable
Bit rate                                 : 14.0 Mb/s
Maximum bit rate                         : 15.0 Mb/s
Width                                    : 1 920 pixels
Height                                   : 1 080 pixels
Display aspect ratio                     : 16:9
Frame rate mode                          : Constant
Frame rate                               : 23.976 (24000/1001) FPS
Color space                              : YUV
Chroma subsampling                       : 4:2:0
Bit depth                                : 8 bits
Scan type                                : Progressive
Bits/(Pixel*Frame)                       : 0.282
Stream size                              : 4.51 GiB (96%)
Writing library                          : x264 core 148 r2623 d5b2374
Encoding settings                        : cabac=1 / ref=4 / deblock=1:-1:-1 / analyse=0x3:0x133 / me=umh / subme=9 / psy=1 / psy_rd=1.00:0.15 / mixed_ref=1 / me_range=24 / chroma_me=1 / trellis=2 / 8x8dct=1 / cqm=0 / deadzone=21,11 / fast_pskip=1 / chroma_qp_offset=-3 / threads=34 / lookahead_threads=5 / sliced_threads=0 / nr=150 / decimate=1 / interlaced=0 / bluray_compat=0 / constrained_intra=0 / bframes=8 / b_pyramid=2 / b_adapt=2 / b_bias=0 / direct=3 / weightb=1 / open_gop=0 / weightp=2 / keyint=120 / keyint_min=61 / scenecut=0 / intra_refresh=0 / rc_lookahead=120 / rc=crf / mbtree=1 / crf=18.0 / qcomp=0.60 / qpmin=0 / qpmax=69 / qpstep=4 / vbv_maxrate=15000 / vbv_bufsize=31250 / crf_max=0.0 / nal_hrd=vbr / filler=0 / ip_ratio=1.40 / aq=3:1.00
Default                                  : Yes
Forced                                   : No
Color range                              : Limited
Color primaries                          : BT.709
Transfer characteristics                 : BT.709
Matrix coefficients                      : BT.709

Audio
ID                                       : 2
Format                                   : E-AC-3
Format/Info                              : Enhanced AC-3
Commercial name                          : Dolby Digital Plus
Codec ID                                 : A_EAC3
Duration                                 : 46 min 3 s
Bit rate mode                            : Constant
Bit rate                                 : 640 kb/s
Channel(s)                               : 6 channels
Channel layout                           : L R C LFE Ls Rs
Sampling rate                            : 48.0 kHz
Frame rate                               : 31.250 FPS (1536 SPF)
Compression mode                         : Lossy
Stream size                              : 211 MiB (4%)
Language                                 : English
Service kind                             : Complete Main
Default                                  : Yes
Forced                                   : No
Dialog Normalization                     : -24 dB
compr                                    : -0.28 dB
dialnorm_Average                         : -24 dB
dialnorm_Minimum                         : -24 dB
dialnorm_Maximum                         : -24 dB

Text
ID                                       : 3
Format                                   : UTF-8
Codec ID                                 : S_TEXT/UTF8
Codec ID/Info                            : UTF-8 Plain Text
Duration                                 : 45 min 46 s
Bit rate                                 : 83 b/s
Frame rate                               : 0.353 FPS
Count of elements                        : 970
Stream size                              : 28.0 KiB (0%)
Language                                 : English
Default                                  : No
Forced                                   : No

General
Unique ID                                : 188655688444122384907872205298310884499 (0x8DEDC39293F64C839072E02C1A54AC93)
Complete name                            : Z:\Queer As Folk S03\Queer.as.Folk.US.S03E08.Hunter.for.Love.1080p.AMZN.WEB-DL.DDP5.1.x264-NTb.mkv
Format                                   : Matroska
Format version                           : Version 4
File size                                : 4.74 GiB
Duration                                 : 47 min 15 s
Overall bit rate mode                    : Variable
Overall bit rate                         : 14.4 Mb/s
Frame rate                               : 23.976 FPS
Encoded date                             : 2017-08-04 03:51:23 UTC
Writing application                      : mkvmerge v10.0.0 ('To Drown In You') 64bit
Writing library                          : libebml v1.3.4 + libmatroska v1.4.5

Video
ID                                       : 1
Format                                   : AVC
Format/Info                              : Advanced Video Codec
Format profile                           : High@L4
Format settings                          : CABAC / 4 Ref Frames
Format settings, CABAC                   : Yes
Format settings, Reference frames        : 4 frames
Codec ID                                 : V_MPEG4/ISO/AVC
Duration                                 : 47 min 15 s
Bit rate mode                            : Variable
Bit rate                                 : 13.7 Mb/s
Maximum bit rate                         : 15.0 Mb/s
Width                                    : 1 920 pixels
Height                                   : 1 080 pixels
Display aspect ratio                     : 16:9
Frame rate mode                          : Constant
Frame rate                               : 23.976 (24000/1001) FPS
Color space                              : YUV
Chroma subsampling                       : 4:2:0
Bit depth                                : 8 bits
Scan type                                : Progressive
Bits/(Pixel*Frame)                       : 0.276
Stream size                              : 4.53 GiB (96%)
Writing library                          : x264 core 148 r2623 d5b2374
Encoding settings                        : cabac=1 / ref=4 / deblock=1:-1:-1 / analyse=0x3:0x133 / me=umh / subme=9 / psy=1 / psy_rd=1.00:0.15 / mixed_ref=1 / me_range=24 / chroma_me=1 / trellis=2 / 8x8dct=1 / cqm=0 / deadzone=21,11 / fast_pskip=1 / chroma_qp_offset=-3 / threads=34 / lookahead_threads=5 / sliced_threads=0 / nr=150 / decimate=1 / interlaced=0 / bluray_compat=0 / constrained_intra=0 / bframes=8 / b_pyramid=2 / b_adapt=2 / b_bias=0 / direct=3 / weightb=1 / open_gop=0 / weightp=2 / keyint=120 / keyint_min=61 / scenecut=0 / intra_refresh=0 / rc_lookahead=120 / rc=crf / mbtree=1 / crf=18.0 / qcomp=0.60 / qpmin=0 / qpmax=69 / qpstep=4 / vbv_maxrate=15000 / vbv_bufsize=31250 / crf_max=0.0 / nal_hrd=vbr / filler=0 / ip_ratio=1.40 / aq=3:1.00
Default                                  : Yes
Forced                                   : No
Color range                              : Limited
Color primaries                          : BT.709
Transfer characteristics                 : BT.709
Matrix coefficients                      : BT.709

Audio
ID                                       : 2
Format                                   : E-AC-3
Format/Info                              : Enhanced AC-3
Commercial name                          : Dolby Digital Plus
Codec ID                                 : A_EAC3
Duration                                 : 47 min 15 s
Bit rate mode                            : Constant
Bit rate                                 : 640 kb/s
Channel(s)                               : 6 channels
Channel layout                           : L R C LFE Ls Rs
Sampling rate                            : 48.0 kHz
Frame rate                               : 31.250 FPS (1536 SPF)
Compression mode                         : Lossy
Stream size                              : 216 MiB (4%)
Language                                 : English
Service kind                             : Complete Main
Default                                  : Yes
Forced                                   : No
Dialog Normalization                     : -24 dB
compr                                    : -0.28 dB
dialnorm_Average                         : -24 dB
dialnorm_Minimum                         : -24 dB
dialnorm_Maximum                         : -24 dB

Text
ID                                       : 3
Format                                   : UTF-8
Codec ID                                 : S_TEXT/UTF8
Codec ID/Info                            : UTF-8 Plain Text
Duration                                 : 47 min 3 s
Bit rate                                 : 89 b/s
Frame rate                               : 0.368 FPS
Count of elements                        : 1038
Stream size                              : 30.8 KiB (0%)
Language                                 : English
Default                                  : No
Forced                                   : No

General
Unique ID                                : 208866739656576578112907193276922109212 (0x9D2245550E88C566B6E8F99BF6909D1C)
Complete name                            : Z:\Queer As Folk S03\Queer.as.Folk.US.S03E09.Big.Fucking.Mouth.1080p.AMZN.WEB-DL.DDP5.1.x264-NTb.mkv
Format                                   : Matroska
Format version                           : Version 4
File size                                : 4.79 GiB
Duration                                 : 47 min 50 s
Overall bit rate mode                    : Variable
Overall bit rate                         : 14.3 Mb/s
Frame rate                               : 23.976 FPS
Encoded date                             : 2017-08-04 04:10:14 UTC
Writing application                      : mkvmerge v10.0.0 ('To Drown In You') 64bit
Writing library                          : libebml v1.3.4 + libmatroska v1.4.5

Video
ID                                       : 1
Format                                   : AVC
Format/Info                              : Advanced Video Codec
Format profile                           : High@L4
Format settings                          : CABAC / 4 Ref Frames
Format settings, CABAC                   : Yes
Format settings, Reference frames        : 4 frames
Codec ID                                 : V_MPEG4/ISO/AVC
Duration                                 : 47 min 50 s
Bit rate mode                            : Variable
Bit rate                                 : 13.7 Mb/s
Maximum bit rate                         : 15.0 Mb/s
Width                                    : 1 920 pixels
Height                                   : 1 080 pixels
Display aspect ratio                     : 16:9
Frame rate mode                          : Constant
Frame rate                               : 23.976 (24000/1001) FPS
Color space                              : YUV
Chroma subsampling                       : 4:2:0
Bit depth                                : 8 bits
Scan type                                : Progressive
Bits/(Pixel*Frame)                       : 0.275
Stream size                              : 4.57 GiB (96%)
Writing library                          : x264 core 148 r2623 d5b2374
Encoding settings                        : cabac=1 / ref=4 / deblock=1:-1:-1 / analyse=0x3:0x133 / me=umh / subme=9 / psy=1 / psy_rd=1.00:0.15 / mixed_ref=1 / me_range=24 / chroma_me=1 / trellis=2 / 8x8dct=1 / cqm=0 / deadzone=21,11 / fast_pskip=1 / chroma_qp_offset=-3 / threads=34 / lookahead_threads=5 / sliced_threads=0 / nr=150 / decimate=1 / interlaced=0 / bluray_compat=0 / constrained_intra=0 / bframes=8 / b_pyramid=2 / b_adapt=2 / b_bias=0 / direct=3 / weightb=1 / open_gop=0 / weightp=2 / keyint=120 / keyint_min=61 / scenecut=0 / intra_refresh=0 / rc_lookahead=120 / rc=crf / mbtree=1 / crf=18.0 / qcomp=0.60 / qpmin=0 / qpmax=69 / qpstep=4 / vbv_maxrate=15000 / vbv_bufsize=31250 / crf_max=0.0 / nal_hrd=vbr / filler=0 / ip_ratio=1.40 / aq=3:1.00
Default                                  : Yes
Forced                                   : No
Color range                              : Limited
Color primaries                          : BT.709
Transfer characteristics                 : BT.709
Matrix coefficients                      : BT.709

Audio
ID                                       : 2
Format                                   : E-AC-3
Format/Info                              : Enhanced AC-3
Commercial name                          : Dolby Digital Plus
Codec ID                                 : A_EAC3
Duration                                 : 47 min 50 s
Bit rate mode                            : Constant
Bit rate                                 : 640 kb/s
Channel(s)                               : 6 channels
Channel layout                           : L R C LFE Ls Rs
Sampling rate                            : 48.0 kHz
Frame rate                               : 31.250 FPS (1536 SPF)
Compression mode                         : Lossy
Stream size                              : 219 MiB (4%)
Language                                 : English
Service kind                             : Complete Main
Default                                  : Yes
Forced                                   : No
Dialog Normalization                     : -24 dB
compr                                    : -0.28 dB
dialnorm_Average                         : -24 dB
dialnorm_Minimum                         : -24 dB
dialnorm_Maximum                         : -24 dB

Text
ID                                       : 3
Format                                   : UTF-8
Codec ID                                 : S_TEXT/UTF8
Codec ID/Info                            : UTF-8 Plain Text
Duration                                 : 47 min 38 s
Bit rate                                 : 87 b/s
Frame rate                               : 0.341 FPS
Count of elements                        : 976
Stream size                              : 30.5 KiB (0%)
Language                                 : English
Default                                  : No
Forced                                   : No

General
Unique ID                                : 220112566606384305788340013903465595049 (0xA5982368B2B812F7878FE13DAB32C0A9)
Complete name                            : Z:\Queer As Folk S03\Queer.as.Folk.US.S03E10.Uncle.Ben.1080p.AMZN.WEB-DL.DDP5.1.H.264-NTb.mkv
Format                                   : Matroska
Format version                           : Version 4
File size                                : 3.14 GiB
Duration                                 : 45 min 42 s
Overall bit rate                         : 9 832 kb/s
Frame rate                               : 23.976 FPS
Encoded date                             : 2017-08-04 04:22:09 UTC
Writing application                      : mkvmerge v10.0.0 ('To Drown In You') 64bit
Writing library                          : libebml v1.3.4 + libmatroska v1.4.5

Video
ID                                       : 1
Format                                   : AVC
Format/Info                              : Advanced Video Codec
Format profile                           : High@L4
Format settings                          : CABAC / 4 Ref Frames
Format settings, CABAC                   : Yes
Format settings, Reference frames        : 4 frames
Codec ID                                 : V_MPEG4/ISO/AVC
Duration                                 : 45 min 42 s
Bit rate mode                            : Constant
Bit rate                                 : 10 000 kb/s
Width                                    : 1 920 pixels
Height                                   : 1 080 pixels
Display aspect ratio                     : 16:9
Frame rate mode                          : Constant
Frame rate                               : 23.976 (24000/1001) FPS
Color space                              : YUV
Chroma subsampling                       : 4:2:0
Bit depth                                : 8 bits
Scan type                                : Progressive
Bits/(Pixel*Frame)                       : 0.201
Stream size                              : 3.06 GiB (97%)
Language                                 : English
Default                                  : Yes
Forced                                   : No
Color range                              : Limited
Color primaries                          : BT.709
Transfer characteristics                 : BT.709
Matrix coefficients                      : BT.709

Audio
ID                                       : 2
Format                                   : E-AC-3
Format/Info                              : Enhanced AC-3
Commercial name                          : Dolby Digital Plus
Codec ID                                 : A_EAC3
Duration                                 : 45 min 42 s
Bit rate mode                            : Constant
Bit rate                                 : 256 kb/s
Channel(s)                               : 6 channels
Channel layout                           : L R C LFE Ls Rs
Sampling rate                            : 48.0 kHz
Frame rate                               : 31.250 FPS (1536 SPF)
Compression mode                         : Lossy
Stream size                              : 83.7 MiB (3%)
Language                                 : English
Service kind                             : Complete Main
Default                                  : Yes
Forced                                   : No
Dialog Normalization                     : -31 dB
compr                                    : -0.28 dB
mixlevel                                 : 80 dB
dmixmod                                  : Lo/Ro
ltrtcmixlev                              : -3.0 dB
ltrtsurmixlev                            : -3.0 dB
lorocmixlev                              : -3.0 dB
lorosurmixlev                            : -3.0 dB
dialnorm_Average                         : -31 dB
dialnorm_Minimum                         : -31 dB
dialnorm_Maximum                         : -31 dB

Text
ID                                       : 3
Format                                   : UTF-8
Codec ID                                 : S_TEXT/UTF8
Codec ID/Info                            : UTF-8 Plain Text
Duration                                 : 42 min 3 s
Bit rate                                 : 83 b/s
Frame rate                               : 0.361 FPS
Count of elements                        : 910
Stream size                              : 25.7 KiB (0%)
Language                                 : English
Default                                  : No
Forced                                   : No

General
Unique ID                                : 180044811049992049255556454718836016056 (0x87735E8A00FE8C93854102FABB0B83B8)
Complete name                            : Z:\Queer As Folk S03\Queer.as.Folk.US.S03E11.Poster.May.Lead.to.the.Truth.1080p.AMZN.WEB-DL.DDP5.1.x264-NTb.mkv
Format                                   : Matroska
Format version                           : Version 4
File size                                : 5.11 GiB
Duration                                 : 50 min 12 s
Overall bit rate mode                    : Variable
Overall bit rate                         : 14.6 Mb/s
Frame rate                               : 23.976 FPS
Encoded date                             : 2017-08-04 04:42:16 UTC
Writing application                      : mkvmerge v10.0.0 ('To Drown In You') 64bit
Writing library                          : libebml v1.3.4 + libmatroska v1.4.5

Video
ID                                       : 1
Format                                   : AVC
Format/Info                              : Advanced Video Codec
Format profile                           : High@L4
Format settings                          : CABAC / 4 Ref Frames
Format settings, CABAC                   : Yes
Format settings, Reference frames        : 4 frames
Codec ID                                 : V_MPEG4/ISO/AVC
Duration                                 : 50 min 12 s
Bit rate mode                            : Variable
Bit rate                                 : 13.9 Mb/s
Maximum bit rate                         : 15.0 Mb/s
Width                                    : 1 920 pixels
Height                                   : 1 080 pixels
Display aspect ratio                     : 16:9
Frame rate mode                          : Constant
Frame rate                               : 23.976 (24000/1001) FPS
Color space                              : YUV
Chroma subsampling                       : 4:2:0
Bit depth                                : 8 bits
Scan type                                : Progressive
Bits/(Pixel*Frame)                       : 0.280
Stream size                              : 4.89 GiB (96%)
Writing library                          : x264 core 148 r2623 d5b2374
Encoding settings                        : cabac=1 / ref=4 / deblock=1:-1:-1 / analyse=0x3:0x133 / me=umh / subme=9 / psy=1 / psy_rd=1.00:0.15 / mixed_ref=1 / me_range=24 / chroma_me=1 / trellis=2 / 8x8dct=1 / cqm=0 / deadzone=21,11 / fast_pskip=1 / chroma_qp_offset=-3 / threads=34 / lookahead_threads=5 / sliced_threads=0 / nr=150 / decimate=1 / interlaced=0 / bluray_compat=0 / constrained_intra=0 / bframes=8 / b_pyramid=2 / b_adapt=2 / b_bias=0 / direct=3 / weightb=1 / open_gop=0 / weightp=2 / keyint=120 / keyint_min=61 / scenecut=0 / intra_refresh=0 / rc_lookahead=120 / rc=crf / mbtree=1 / crf=18.0 / qcomp=0.60 / qpmin=0 / qpmax=69 / qpstep=4 / vbv_maxrate=15000 / vbv_bufsize=31250 / crf_max=0.0 / nal_hrd=vbr / filler=0 / ip_ratio=1.40 / aq=3:1.00
Default                                  : Yes
Forced                                   : No
Color range                              : Limited
Color primaries                          : BT.709
Transfer characteristics                 : BT.709
Matrix coefficients                      : BT.709

Audio
ID                                       : 2
Format                                   : E-AC-3
Format/Info                              : Enhanced AC-3
Commercial name                          : Dolby Digital Plus
Codec ID                                 : A_EAC3
Duration                                 : 50 min 12 s
Bit rate mode                            : Constant
Bit rate                                 : 640 kb/s
Channel(s)                               : 6 channels
Channel layout                           : L R C LFE Ls Rs
Sampling rate                            : 48.0 kHz
Frame rate                               : 31.250 FPS (1536 SPF)
Compression mode                         : Lossy
Stream size                              : 230 MiB (4%)
Language                                 : English
Service kind                             : Complete Main
Default                                  : Yes
Forced                                   : No
Dialog Normalization                     : -24 dB
compr                                    : -0.28 dB
dialnorm_Average                         : -24 dB
dialnorm_Minimum                         : -24 dB
dialnorm_Maximum                         : -24 dB

Text
ID                                       : 3
Format                                   : UTF-8
Codec ID                                 : S_TEXT/UTF8
Codec ID/Info                            : UTF-8 Plain Text
Duration                                 : 49 min 43 s
Bit rate                                 : 85 b/s
Frame rate                               : 0.369 FPS
Count of elements                        : 1100
Stream size                              : 31.0 KiB (0%)
Language                                 : English
Default                                  : No
Forced                                   : No

General
Unique ID                                : 195314736418246611087610635539039831180 (0x92F03FFC61E65FD08B4B64D1588EC48C)
Complete name                            : Z:\Queer As Folk S03\Queer.as.Folk.US.S03E12.Drugs.Sex.and.Lies.1080p.AMZN.WEB-DL.DDP5.1.x264-NTb.mkv
Format                                   : Matroska
Format version                           : Version 4
File size                                : 5.25 GiB
Duration                                 : 51 min 9 s
Overall bit rate mode                    : Variable
Overall bit rate                         : 14.7 Mb/s
Frame rate                               : 23.976 FPS
Encoded date                             : 2017-08-04 05:03:14 UTC
Writing application                      : mkvmerge v10.0.0 ('To Drown In You') 64bit
Writing library                          : libebml v1.3.4 + libmatroska v1.4.5

Video
ID                                       : 1
Format                                   : AVC
Format/Info                              : Advanced Video Codec
Format profile                           : High@L4
Format settings                          : CABAC / 4 Ref Frames
Format settings, CABAC                   : Yes
Format settings, Reference frames        : 4 frames
Codec ID                                 : V_MPEG4/ISO/AVC
Duration                                 : 51 min 9 s
Bit rate mode                            : Variable
Bit rate                                 : 14.0 Mb/s
Maximum bit rate                         : 15.0 Mb/s
Width                                    : 1 920 pixels
Height                                   : 1 080 pixels
Display aspect ratio                     : 16:9
Frame rate mode                          : Constant
Frame rate                               : 23.976 (24000/1001) FPS
Color space                              : YUV
Chroma subsampling                       : 4:2:0
Bit depth                                : 8 bits
Scan type                                : Progressive
Bits/(Pixel*Frame)                       : 0.283
Stream size                              : 5.02 GiB (96%)
Writing library                          : x264 core 148 r2623 d5b2374
Encoding settings                        : cabac=1 / ref=4 / deblock=1:-1:-1 / analyse=0x3:0x133 / me=umh / subme=9 / psy=1 / psy_rd=1.00:0.15 / mixed_ref=1 / me_range=24 / chroma_me=1 / trellis=2 / 8x8dct=1 / cqm=0 / deadzone=21,11 / fast_pskip=1 / chroma_qp_offset=-3 / threads=34 / lookahead_threads=5 / sliced_threads=0 / nr=150 / decimate=1 / interlaced=0 / bluray_compat=0 / constrained_intra=0 / bframes=8 / b_pyramid=2 / b_adapt=2 / b_bias=0 / direct=3 / weightb=1 / open_gop=0 / weightp=2 / keyint=120 / keyint_min=61 / scenecut=0 / intra_refresh=0 / rc_lookahead=120 / rc=crf / mbtree=1 / crf=18.0 / qcomp=0.60 / qpmin=0 / qpmax=69 / qpstep=4 / vbv_maxrate=15000 / vbv_bufsize=31250 / crf_max=0.0 / nal_hrd=vbr / filler=0 / ip_ratio=1.40 / aq=3:1.00
Default                                  : Yes
Forced                                   : No
Color range                              : Limited
Color primaries                          : BT.709
Transfer characteristics                 : BT.709
Matrix coefficients                      : BT.709

Audio
ID                                       : 2
Format                                   : E-AC-3
Format/Info                              : Enhanced AC-3
Commercial name                          : Dolby Digital Plus
Codec ID                                 : A_EAC3
Duration                                 : 51 min 9 s
Bit rate mode                            : Constant
Bit rate                                 : 640 kb/s
Channel(s)                               : 6 channels
Channel layout                           : L R C LFE Ls Rs
Sampling rate                            : 48.0 kHz
Frame rate                               : 31.250 FPS (1536 SPF)
Compression mode                         : Lossy
Stream size                              : 234 MiB (4%)
Language                                 : English
Service kind                             : Complete Main
Default                                  : Yes
Forced                                   : No
Dialog Normalization                     : -24 dB
compr                                    : -0.28 dB
dialnorm_Average                         : -24 dB
dialnorm_Minimum                         : -24 dB
dialnorm_Maximum                         : -24 dB

Text
ID                                       : 3
Format                                   : UTF-8
Codec ID                                 : S_TEXT/UTF8
Codec ID/Info                            : UTF-8 Plain Text
Duration                                 : 49 min 40 s
Bit rate                                 : 78 b/s
Frame rate                               : 0.357 FPS
Count of elements                        : 1065
Stream size                              : 28.7 KiB (0%)
Language                                 : English
Default                                  : No
Forced                                   : No

General
Unique ID                                : 193580647027121015879219380889904476541 (0x91A246C7274165CBA3C6C2B2E9FFF17D)
Complete name                            : Z:\Queer As Folk S03\Queer.as.Folk.US.S03E13.Tweaked-Out.Fucked-Out.Crystal.Queen.1080p.AMZN.WEB-DL.DDP5.1.x264-NTb.mkv
Format                                   : Matroska
Format version                           : Version 4
File size                                : 4.73 GiB
Duration                                 : 46 min 18 s
Overall bit rate mode                    : Variable
Overall bit rate                         : 14.6 Mb/s
Frame rate                               : 23.976 FPS
Encoded date                             : 2017-08-04 05:20:02 UTC
Writing application                      : mkvmerge v10.0.0 ('To Drown In You') 64bit
Writing library                          : libebml v1.3.4 + libmatroska v1.4.5

Video
ID                                       : 1
Format                                   : AVC
Format/Info                              : Advanced Video Codec
Format profile                           : High@L4
Format settings                          : CABAC / 4 Ref Frames
Format settings, CABAC                   : Yes
Format settings, Reference frames        : 4 frames
Codec ID                                 : V_MPEG4/ISO/AVC
Duration                                 : 46 min 18 s
Bit rate mode                            : Variable
Bit rate                                 : 14.0 Mb/s
Maximum bit rate                         : 15.0 Mb/s
Width                                    : 1 920 pixels
Height                                   : 1 080 pixels
Display aspect ratio                     : 16:9
Frame rate mode                          : Constant
Frame rate                               : 23.976 (24000/1001) FPS
Color space                              : YUV
Chroma subsampling                       : 4:2:0
Bit depth                                : 8 bits
Scan type                                : Progressive
Bits/(Pixel*Frame)                       : 0.281
Stream size                              : 4.52 GiB (96%)
Writing library                          : x264 core 148 r2623 d5b2374
Encoding settings                        : cabac=1 / ref=4 / deblock=1:-1:-1 / analyse=0x3:0x133 / me=umh / subme=9 / psy=1 / psy_rd=1.00:0.15 / mixed_ref=1 / me_range=24 / chroma_me=1 / trellis=2 / 8x8dct=1 / cqm=0 / deadzone=21,11 / fast_pskip=1 / chroma_qp_offset=-3 / threads=34 / lookahead_threads=5 / sliced_threads=0 / nr=150 / decimate=1 / interlaced=0 / bluray_compat=0 / constrained_intra=0 / bframes=8 / b_pyramid=2 / b_adapt=2 / b_bias=0 / direct=3 / weightb=1 / open_gop=0 / weightp=2 / keyint=120 / keyint_min=61 / scenecut=0 / intra_refresh=0 / rc_lookahead=120 / rc=crf / mbtree=1 / crf=18.0 / qcomp=0.60 / qpmin=0 / qpmax=69 / qpstep=4 / vbv_maxrate=15000 / vbv_bufsize=31250 / crf_max=0.0 / nal_hrd=vbr / filler=0 / ip_ratio=1.40 / aq=3:1.00
Default                                  : Yes
Forced                                   : No
Color range                              : Limited
Color primaries                          : BT.709
Transfer characteristics                 : BT.709
Matrix coefficients                      : BT.709

Audio
ID                                       : 2
Format                                   : E-AC-3
Format/Info                              : Enhanced AC-3
Commercial name                          : Dolby Digital Plus
Codec ID                                 : A_EAC3
Duration                                 : 46 min 18 s
Bit rate mode                            : Constant
Bit rate                                 : 640 kb/s
Channel(s)                               : 6 channels
Channel layout                           : L R C LFE Ls Rs
Sampling rate                            : 48.0 kHz
Frame rate                               : 31.250 FPS (1536 SPF)
Compression mode                         : Lossy
Stream size                              : 212 MiB (4%)
Language                                 : English
Service kind                             : Complete Main
Default                                  : Yes
Forced                                   : No
Dialog Normalization                     : -24 dB
compr                                    : -0.28 dB
dialnorm_Average                         : -24 dB
dialnorm_Minimum                         : -24 dB
dialnorm_Maximum                         : -24 dB

Text
ID                                       : 3
Format                                   : UTF-8
Codec ID                                 : S_TEXT/UTF8
Codec ID/Info                            : UTF-8 Plain Text
Duration                                 : 46 min 6 s
Bit rate                                 : 78 b/s
Frame rate                               : 0.334 FPS
Count of elements                        : 925
Stream size                              : 26.5 KiB (0%)
Language                                 : English
Default                                  : No
Forced                                   : No

General
Unique ID                                : 245985024936740810761429408042465401841 (0xB90EFE17141D0D30BD7E8FCB8D5C9BF1)
Complete name                            : Z:\Queer As Folk S03\Queer.as.Folk.US.S03E14.The.Election.1080p.AMZN.WEB-DL.DDP5.1.x264-NTb.mkv
Format                                   : Matroska
Format version                           : Version 4
File size                                : 5.51 GiB
Duration                                 : 53 min 28 s
Overall bit rate mode                    : Variable
Overall bit rate                         : 14.8 Mb/s
Frame rate                               : 23.976 FPS
Encoded date                             : 2017-08-04 05:42:13 UTC
Writing application                      : mkvmerge v10.0.0 ('To Drown In You') 64bit
Writing library                          : libebml v1.3.4 + libmatroska v1.4.5

Video
ID                                       : 1
Format                                   : AVC
Format/Info                              : Advanced Video Codec
Format profile                           : High@L4
Format settings                          : CABAC / 4 Ref Frames
Format settings, CABAC                   : Yes
Format settings, Reference frames        : 4 frames
Codec ID                                 : V_MPEG4/ISO/AVC
Duration                                 : 53 min 28 s
Bit rate mode                            : Variable
Bit rate                                 : 14.1 Mb/s
Maximum bit rate                         : 15.0 Mb/s
Width                                    : 1 920 pixels
Height                                   : 1 080 pixels
Display aspect ratio                     : 16:9
Frame rate mode                          : Constant
Frame rate                               : 23.976 (24000/1001) FPS
Color space                              : YUV
Chroma subsampling                       : 4:2:0
Bit depth                                : 8 bits
Scan type                                : Progressive
Bits/(Pixel*Frame)                       : 0.284
Stream size                              : 5.27 GiB (96%)
Writing library                          : x264 core 148 r2623 d5b2374
Encoding settings                        : cabac=1 / ref=4 / deblock=1:-1:-1 / analyse=0x3:0x133 / me=umh / subme=9 / psy=1 / psy_rd=1.00:0.15 / mixed_ref=1 / me_range=24 / chroma_me=1 / trellis=2 / 8x8dct=1 / cqm=0 / deadzone=21,11 / fast_pskip=1 / chroma_qp_offset=-3 / threads=34 / lookahead_threads=5 / sliced_threads=0 / nr=150 / decimate=1 / interlaced=0 / bluray_compat=0 / constrained_intra=0 / bframes=8 / b_pyramid=2 / b_adapt=2 / b_bias=0 / direct=3 / weightb=1 / open_gop=0 / weightp=2 / keyint=120 / keyint_min=61 / scenecut=0 / intra_refresh=0 / rc_lookahead=120 / rc=crf / mbtree=1 / crf=18.0 / qcomp=0.60 / qpmin=0 / qpmax=69 / qpstep=4 / vbv_maxrate=15000 / vbv_bufsize=31250 / crf_max=0.0 / nal_hrd=vbr / filler=0 / ip_ratio=1.40 / aq=3:1.00
Default                                  : Yes
Forced                                   : No
Color range                              : Limited
Color primaries                          : BT.709
Transfer characteristics                 : BT.709
Matrix coefficients                      : BT.709

Audio
ID                                       : 2
Format                                   : E-AC-3
Format/Info                              : Enhanced AC-3
Commercial name                          : Dolby Digital Plus
Codec ID                                 : A_EAC3
Duration                                 : 53 min 28 s
Bit rate mode                            : Constant
Bit rate                                 : 640 kb/s
Channel(s)                               : 6 channels
Channel layout                           : L R C LFE Ls Rs
Sampling rate                            : 48.0 kHz
Frame rate                               : 31.250 FPS (1536 SPF)
Compression mode                         : Lossy
Stream size                              : 245 MiB (4%)
Language                                 : English
Service kind                             : Complete Main
Default                                  : Yes
Forced                                   : No
Dialog Normalization                     : -24 dB
compr                                    : -0.28 dB
dialnorm_Average                         : -24 dB
dialnorm_Minimum                         : -24 dB
dialnorm_Maximum                         : -24 dB

Text
ID                                       : 3
Format                                   : UTF-8
Codec ID                                 : S_TEXT/UTF8
Codec ID/Info                            : UTF-8 Plain Text
Duration                                 : 52 min 7 s
Bit rate                                 : 73 b/s
Frame rate                               : 0.307 FPS
Count of elements                        : 960
Stream size                              : 28.0 KiB (0%)
Language                                 : English
Default                                  : No
Forced                                   : No

</pre>
</div><div style="text-align: center">​</div></div></div>
</div><div style="text-align: left"><div style="text-align: center"><br>
<span style="font-family: 'Georgia'">
<div class="bbCodeBlock bbCodeVfcHH HiddenContent">
<div class="attribution type">Hidden Content:</div>
<blockquote>You must reply before you can see the hidden data contained here.</blockquote>
</div></span>​</div></div></div>
<div class="messageTextEndMarker">&nbsp;</div>
</blockquote>
</article>]]></description>
                <author><![CDATA[bspengeman]]></author>
                </item>

                </channel></rss>